<!-- Save this as bg-gradient-bar.svg in your repo’s /assets folder -->
<svg viewBox="0 0 1440 320" xmlns="http://www.w3.org/2000/svg">
  <path fill="url(#grad1)" d="M0,160L48,154.7C96,149,192,139,288,149.3C384,160,480,192,576,181.3C672,171,768,117,864,90.7C960,64,1056,64,1152,80C1248,96,1344,128,1392,144L1440,160L1440,0L1392,0C1344,0,1248,0,1152,0C1056,0,960,0,864,0C768,0,672,0,576,0C480,0,384,0,288,0C192,0,96,0,48,0L0,0Z"/>
  <defs>
    <linearGradient id="grad1" x1="0%" y1="0%" x2="100%" y2="0%">
      <stop offset="0%" style="stop-color:#00c6ff; stop-opacity:1" />
      <stop offset="100%" style="stop-color:#0072ff; stop-opacity:1" />
    </linearGradient>
  </defs>
</svg>
