<!-- Save this as footer-gradient.svg -->
<svg viewBox="0 0 1440 320" xmlns="http://www.w3.org/2000/svg">
  <path fill="url(#grad2)" d="M0,288L48,272C96,256,192,224,288,192C384,160,480,128,576,112C672,96,768,96,864,117.3C960,139,1056,181,1152,208C1248,235,1344,245,1392,250.7L1440,256L1440,0L1392,0C1344,0,1248,0,1152,0C1056,0,960,0,864,0C768,0,672,0,576,0C480,0,384,0,288,0C192,0,96,0,48,0L0,0Z"/>
  <defs>
    <linearGradient id="grad2" x1="0%" y1="0%" x2="100%" y2="0%">
      <stop offset="0%" style="stop-color:#fc466b; stop-opacity:1" />
      <stop offset="100%" style="stop-color:#3f5efb; stop-opacity:1" />
    </linearGradient>
  </defs>
</svg>
